<svg xmlns="http://www.w3.org/2000/svg" viewBox="0 0 44.98 44.98"><defs><style>.cls-1{fill:#4d4d4f;}.cls-2{fill:none;}</style></defs><title>comment</title><g id="Layer_2" data-name="Layer 2"><g id="OBJECTS"><path class="cls-1" d="M37,17.12A15.41,15.41,0,1,0,27.85,35a2,2,0,0,1,1.35-.1l4.3,1.32a2.29,2.29,0,0,0,2.92-2.6l-.88-4.67a1.93,1.93,0,0,1,.21-1.25h0A15.37,15.37,0,0,0,37,17.12Zm-2.83,9.73h0a3.71,3.71,0,0,0-.38,2.4l.88,4.67a.47.47,0,0,1-.15.45.45.45,0,0,1-.47.1l-4.31-1.32a3.58,3.58,0,0,0-1-.15,3.89,3.89,0,0,0-1.51.31,13.63,13.63,0,1,1,7-6.46Z"/><rect class="cls-2" width="44.98" height="44.98"/></g></g></svg>