<?xml version="1.0" encoding="UTF-8"?>
<svg width="121px" height="35px" viewBox="0 0 121 35" version="1.1" xmlns="http://www.w3.org/2000/svg" xmlns:xlink="http://www.w3.org/1999/xlink">
    <!-- Generator: Sketch 52.5 (67469) - http://www.bohemiancoding.com/sketch -->
    <title>Fill 20</title>
    <desc>Created with Sketch.</desc>
    <g id="Page-1" stroke="none" stroke-width="1" fill="none" fill-rule="evenodd">
        <g id="307885-P7YTXT-208" transform="translate(-101.000000, -408.000000)" fill="#464645">
            <path d="M169.333,433.719 C168.074,434.961 166.909,436.355 166.209,437.996 C165.958,438.581 165.823,439.243 166.004,439.868 C166.126,440.354 166.511,440.768 166.999,440.893 C167.607,441.052 168.299,441.052 168.848,440.71 C169.342,440.383 169.666,439.855 169.861,439.305 C170.234,438.248 170.307,437.117 170.359,436.007 C170.376,434.921 170.407,433.835 170.414,432.749 C170.018,433.03 169.692,433.394 169.333,433.719 Z M192.707,418.5 C191.995,418.612 191.451,419.167 191.128,419.782 C190.548,420.878 190.374,422.131 190.265,423.35 C190.175,424.72 190.138,426.119 190.459,427.465 C190.622,428.12 190.895,428.79 191.429,429.229 C191.778,429.51 192.267,429.668 192.702,429.508 C193.271,429.316 193.668,428.827 193.987,428.341 C194.716,427.133 194.986,425.713 195.122,424.326 C195.224,423.064 195.253,421.772 194.943,420.536 C194.786,419.928 194.522,419.316 194.039,418.896 C193.685,418.575 193.181,418.408 192.707,418.5 Z M167.62,418.394 C166.803,418.616 166.237,419.326 165.87,420.053 C165.337,421.184 165.121,422.436 165.027,423.674 C164.966,425.064 164.953,426.494 165.381,427.835 C165.597,428.469 165.965,429.117 166.599,429.405 C166.995,429.595 167.477,429.552 167.847,429.321 C168.162,429.117 168.435,428.85 168.652,428.544 C169.158,427.853 169.458,427.033 169.664,426.208 C169.964,424.979 170.064,423.709 170.056,422.447 C170.045,421.585 169.968,420.712 169.698,419.888 C169.521,419.384 169.251,418.88 168.803,418.569 C168.464,418.329 168.014,418.271 167.62,418.394 Z M153.161,418.349 C152.48,418.484 151.975,419.032 151.656,419.619 C151.232,420.415 151.033,421.308 150.904,422.194 C150.748,423.348 150.697,424.519 150.759,425.682 C150.823,426.577 150.944,427.496 151.357,428.306 C151.589,428.746 151.941,429.154 152.422,429.324 C152.737,429.449 153.105,429.437 153.406,429.273 C154.021,428.957 154.44,428.369 154.75,427.768 C155.295,426.656 155.529,425.422 155.65,424.199 C155.749,422.927 155.785,421.624 155.479,420.376 C155.316,419.782 155.067,419.184 154.606,418.759 C154.227,418.402 153.672,418.228 153.161,418.349 Z M140.493,408.546 C140.777,408.305 141.178,408.339 141.523,408.383 C142.142,408.484 142.757,408.638 143.334,408.889 C143.512,408.961 143.667,409.08 143.806,409.212 C143.751,410.562 143.697,411.913 143.625,413.263 C144.985,413.324 146.345,413.4 147.704,413.479 C147.94,413.49 148.256,413.558 148.296,413.839 C148.351,414.257 148.288,414.703 148.092,415.078 C147.976,415.274 147.81,415.516 147.551,415.499 C146.231,415.521 144.912,415.563 143.591,415.581 C143.518,417.479 143.468,419.377 143.402,421.274 C143.367,423.006 143.208,424.742 143.393,426.471 C143.476,427.141 143.563,427.837 143.889,428.44 C144.021,428.702 144.264,428.928 144.565,428.966 C144.957,429.002 145.344,428.84 145.637,428.587 C146.102,428.188 146.423,427.653 146.698,427.113 C147.02,426.49 147.252,425.827 147.463,425.16 C147.541,424.866 147.479,424.56 147.508,424.261 C147.526,422.674 147.777,421.083 148.32,419.59 C148.73,418.506 149.309,417.438 150.225,416.702 C151.224,415.868 152.688,415.59 153.898,416.1 C154.681,416.404 155.315,417.021 155.708,417.757 C155.759,417.409 155.678,417.028 155.833,416.703 C156.054,416.349 156.521,416.332 156.893,416.364 C157.39,416.421 157.891,416.544 158.33,416.792 C158.598,416.944 158.865,417.19 158.875,417.52 C158.789,420.415 158.669,423.313 158.76,426.21 C158.788,426.839 158.875,427.466 159.012,428.08 C159.126,428.522 159.269,429.004 159.639,429.303 C159.986,429.57 160.485,429.484 160.813,429.226 C161.342,428.813 161.645,428.194 161.915,427.595 C161.984,427.424 162.084,427.248 162.048,427.056 C161.85,425.319 161.812,423.553 162.093,421.822 C162.292,420.66 162.641,419.509 163.242,418.488 C163.849,417.446 164.731,416.538 165.831,416.019 C166.043,415.932 166.255,415.819 166.488,415.802 C167.572,415.793 168.693,416.152 169.464,416.937 C169.664,417.152 169.832,417.396 169.986,417.646 C170.056,417.321 169.983,416.975 170.099,416.66 C170.273,416.295 170.743,416.272 171.094,416.32 C171.684,416.416 172.286,416.544 172.812,416.841 C173.135,417.032 173.136,417.447 173.119,417.778 C173.089,421.041 173.042,424.305 173.019,427.567 C173.76,426.523 174.437,425.432 175.016,424.289 C175.729,422.903 176.331,421.444 176.635,419.91 C176.229,419.543 175.856,419.096 175.738,418.55 C175.632,418.104 175.732,417.645 175.855,417.215 C176.051,416.565 176.534,415.968 177.204,415.779 C177.714,415.636 178.297,415.622 178.774,415.88 C179.136,416.072 179.342,416.468 179.4,416.861 C179.468,417.262 179.407,417.668 179.331,418.062 C180.204,417.924 181.077,417.782 181.935,417.565 C182.524,417.431 183.155,417.325 183.745,417.512 C184.166,417.636 184.474,418.017 184.573,418.435 C184.678,418.882 184.714,419.366 184.542,419.803 C184.312,420.38 184.258,421.004 184.129,421.607 C183.851,423.209 183.492,424.846 183.76,426.473 C183.858,427.199 184.007,427.926 184.292,428.604 C184.467,428.962 184.691,429.356 185.098,429.483 C185.499,429.59 185.908,429.385 186.217,429.141 C186.726,428.683 187.062,428.042 187.216,427.382 C186.872,425.674 186.791,423.904 187.065,422.181 C187.264,420.887 187.634,419.609 188.26,418.455 C188.751,417.585 189.437,416.781 190.353,416.342 C191.368,415.841 192.627,415.841 193.621,416.402 C194.235,416.721 194.704,417.255 195.055,417.843 C195.109,417.491 195.019,417.1 195.208,416.78 C195.488,416.432 195.997,416.453 196.398,416.51 C196.987,416.613 197.633,416.757 198.046,417.227 C198.312,417.521 198.184,417.939 198.186,418.295 C198.138,420.197 198.057,422.099 198.063,424.002 C198.074,425.455 198.017,426.936 198.405,428.351 C198.518,428.713 198.665,429.098 198.981,429.331 C199.334,429.587 199.838,429.532 200.176,429.276 C200.638,428.926 200.949,428.423 201.218,427.918 C201.429,427.466 201.687,427.022 201.803,426.534 C201.81,423.334 201.828,420.134 201.833,416.934 C201.811,416.662 201.909,416.347 202.178,416.231 C202.374,416.11 202.605,416.2 202.817,416.224 C203.381,416.329 203.979,416.347 204.501,416.613 C204.696,416.709 204.903,416.882 204.887,417.122 C204.882,418.703 204.888,420.285 204.883,421.866 C204.881,422.049 204.883,422.232 204.902,422.415 C205.369,420.973 205.858,419.536 206.416,418.125 C206.636,417.604 206.863,417.082 207.149,416.593 C207.363,416.2 207.866,416.135 208.269,416.161 C209.128,416.226 210.04,416.597 210.495,417.366 C210.658,417.646 210.73,417.974 210.73,418.296 C210.714,419.941 210.807,421.584 210.924,423.224 C210.962,423.733 210.97,424.247 211.05,424.753 C211.105,424.714 211.138,424.662 211.146,424.598 C211.316,423.383 211.62,422.192 211.962,421.016 C212.349,419.714 212.772,418.42 213.312,417.172 C213.45,416.861 213.585,416.508 213.906,416.339 C214.363,416.088 214.918,416.166 215.398,416.31 C215.942,416.496 216.505,416.688 216.946,417.073 C217.266,417.344 217.524,417.733 217.537,418.164 C217.403,420.71 217.28,423.268 217.469,425.815 C217.523,426.517 217.607,427.219 217.784,427.9 C217.889,428.285 218.021,428.673 218.262,428.996 C218.492,429.304 218.929,429.465 219.294,429.316 C219.62,429.191 219.836,428.892 219.999,428.597 C220.379,427.89 220.489,427.084 220.704,426.319 C220.757,426.088 220.862,425.834 221.11,425.754 C221.285,425.643 221.468,425.78 221.608,425.884 C221.788,426.051 221.734,426.315 221.737,426.535 C221.687,427.764 221.493,429.051 220.771,430.08 C220.199,430.932 219.162,431.48 218.128,431.361 C217.18,431.316 216.295,430.77 215.788,429.975 C215.138,428.992 214.879,427.817 214.707,426.669 C214.405,424.382 214.482,422.069 214.54,419.771 C214.446,419.832 214.384,419.926 214.34,420.025 C213.695,421.308 213.261,422.685 212.919,424.075 C212.47,425.879 212.19,427.728 212.127,429.587 C212.135,429.827 211.948,430.008 211.727,430.062 C211.215,430.269 210.612,430.313 210.107,430.066 C209.592,429.825 209.217,429.359 208.986,428.851 C208.739,428.325 208.644,427.747 208.561,427.178 C208.256,424.814 208.152,422.43 208.034,420.052 C208.05,419.881 207.855,419.991 207.766,420.007 C206.608,422.023 206.02,424.313 205.722,426.604 C205.538,427.937 205.477,429.284 205.458,430.627 C205.456,430.87 205.322,431.104 205.11,431.222 C204.712,431.448 204.233,431.438 203.792,431.403 C203.267,431.35 202.709,431.305 202.263,430.994 C202.073,430.87 201.948,430.658 201.939,430.432 C201.907,429.995 201.899,429.557 201.862,429.119 C201.621,429.471 201.422,429.852 201.134,430.169 C200.676,430.711 200.082,431.171 199.381,431.338 C198.391,431.563 197.285,431.238 196.6,430.482 C196.038,429.878 195.736,429.078 195.591,428.276 C195.094,429.359 194.287,430.327 193.218,430.881 C192.699,431.162 192.12,431.32 191.534,431.378 C190.891,431.455 190.217,431.377 189.636,431.081 C188.781,430.646 188.142,429.863 187.755,428.998 C187.302,430.017 186.521,430.996 185.402,431.295 C184.297,431.599 183.107,431.148 182.315,430.36 C181.306,429.372 180.776,427.983 180.619,426.599 C180.532,425.93 180.562,425.253 180.609,424.581 C180.71,423.079 180.874,421.57 181.265,420.113 C181.27,420.032 181.271,419.952 181.267,419.871 C180.461,419.833 179.654,419.861 178.849,419.883 C178.451,421.252 177.859,422.556 177.193,423.813 C176.048,425.965 174.644,427.974 173.068,429.83 C173.086,431.618 173.142,433.408 173.056,435.194 C172.968,436.611 172.755,438.047 172.165,439.351 C171.715,440.32 171.008,441.202 170.052,441.711 C169.34,442.105 168.53,442.315 167.721,442.365 C166.713,442.294 165.666,442.043 164.879,441.376 C164.324,440.921 163.945,440.267 163.801,439.565 C163.696,438.955 163.663,438.313 163.863,437.717 C164.22,436.598 164.937,435.639 165.708,434.771 C166.488,433.886 167.39,433.121 168.241,432.308 C168.924,431.669 169.61,431.033 170.295,430.399 C170.307,429.904 170.229,429.407 170.214,428.912 C169.898,429.323 169.616,429.767 169.219,430.108 C168.233,431.065 166.809,431.559 165.443,431.381 C164.497,431.214 163.721,430.557 163.153,429.813 C162.937,429.541 162.746,429.25 162.579,428.946 C162.077,429.941 161.352,430.957 160.239,431.305 C159.131,431.618 157.875,431.165 157.147,430.288 C156.669,429.701 156.36,428.978 156.259,428.228 C155.793,429.229 155.079,430.139 154.126,430.717 C153.516,431.098 152.811,431.315 152.094,431.373 C151.317,431.467 150.508,431.279 149.863,430.833 C148.701,430.017 148.13,428.637 147.787,427.308 C147.607,427.9 147.314,428.449 147.012,428.986 C146.704,429.467 146.38,429.944 145.964,430.338 C145.477,430.813 144.866,431.196 144.181,431.286 C143.394,431.388 142.566,431.148 141.96,430.633 C141.47,430.214 141.104,429.666 140.839,429.082 C140.342,428.014 140.153,426.835 140.055,425.67 C139.441,427.024 138.716,428.362 137.642,429.411 C136.82,430.252 135.777,430.893 134.629,431.17 C133.723,431.403 132.777,431.379 131.854,431.295 C131.056,431.215 130.244,431.06 129.539,430.661 C129.199,430.459 128.852,430.182 128.75,429.782 C128.684,429.342 128.935,428.943 129.177,428.6 C129.413,428.284 129.678,427.949 130.061,427.809 C130.417,427.692 130.726,427.981 131.004,428.161 C131.436,428.54 131.923,428.883 132.493,429.007 C133.051,429.152 133.715,428.969 134.045,428.478 C134.347,428.02 134.431,427.457 134.462,426.921 C134.456,425.906 133.806,425.044 133.121,424.354 C132.48,423.74 131.808,423.158 131.146,422.567 C130.203,424.173 129.191,425.736 128.237,427.336 C127.667,428.361 126.978,429.334 126.105,430.124 C125.472,430.687 124.717,431.171 123.864,431.285 C123.291,431.372 122.711,431.087 122.362,430.641 C121.903,430.059 121.708,429.324 121.597,428.605 C121.424,427.317 121.489,426.015 121.509,424.72 C121.53,423.073 121.617,421.428 121.671,419.782 C121.681,419.429 121.724,419.076 121.687,418.724 C121.576,418.749 121.446,418.751 121.376,418.855 C119.799,420.629 118.815,422.834 118.054,425.059 C117.407,427.006 116.94,429.011 116.639,431.039 C116.384,431.247 116.046,431.305 115.728,431.251 C115.343,431.194 114.949,431.248 114.569,431.167 C114.229,431.077 113.989,430.779 113.855,430.467 C113.578,429.823 113.543,429.109 113.55,428.418 C113.583,424.522 113.607,420.629 113.636,416.733 C113.627,416.546 113.68,416.309 113.881,416.243 C114.284,416.113 114.712,416.224 115.113,416.311 C115.563,416.429 116.054,416.542 116.392,416.887 C116.564,417.05 116.491,417.306 116.504,417.516 C116.495,419.677 116.464,421.838 116.475,423.998 C117.183,422.084 117.882,420.141 118.987,418.409 C119.234,418.054 119.469,417.686 119.773,417.374 C120.298,416.763 121.021,416.226 121.856,416.208 C122.484,416.183 123.059,416.475 123.609,416.74 C124.117,416.999 124.611,417.371 124.821,417.921 C124.957,418.244 124.903,418.601 124.897,418.94 C124.842,420.799 124.787,422.657 124.723,424.516 C124.71,425.274 124.65,426.032 124.695,426.791 C124.715,427.152 124.756,427.518 124.883,427.858 C124.96,428.048 125.072,428.268 125.297,428.304 C125.511,428.327 125.686,428.175 125.839,428.048 C126.182,427.736 126.46,427.361 126.734,426.99 C127.513,425.907 128.181,424.751 128.848,423.597 C129.239,422.883 129.647,422.177 130.009,421.448 C129.882,421.235 129.686,421.065 129.574,420.841 C129.144,420.146 129.024,419.271 129.25,418.486 C129.456,417.721 129.937,417.039 130.567,416.562 C131.014,416.247 131.533,416.041 132.069,415.935 C132.58,415.804 133.146,415.879 133.598,416.152 C133.91,416.343 134.07,416.709 134.082,417.065 C134.111,417.735 133.863,418.382 133.548,418.962 C133.244,419.537 132.848,420.057 132.433,420.556 C133.764,421.527 135.147,422.453 136.297,423.646 C136.899,424.281 137.399,425.063 137.501,425.95 C137.572,426.408 137.51,426.87 137.44,427.324 C138.694,426.231 139.666,424.735 139.918,423.073 C139.952,420.534 139.944,417.993 139.971,415.454 C138.81,415.433 137.646,415.431 136.486,415.399 C136.256,415.263 136.21,414.969 136.198,414.725 C136.201,414.142 136.362,413.532 136.761,413.092 C136.822,412.999 136.939,413.028 137.035,413.021 C138.07,413.034 139.105,413.049 140.14,413.063 C140.19,411.888 140.218,410.711 140.262,409.534 C140.271,409.196 140.259,408.819 140.493,408.546 Z M107.775,408.305 C108.124,408.21 108.491,408.268 108.835,408.348 C109.352,408.478 109.887,408.618 110.312,408.956 C110.529,409.126 110.723,409.375 110.703,409.666 C110.701,414.618 110.703,419.57 110.702,424.522 C110.688,426.146 110.791,427.786 110.492,429.392 C110.266,430.696 109.761,431.995 108.826,432.957 C108.519,433.304 108.169,433.619 107.759,433.84 C107.414,434.024 107.036,434.189 106.636,434.158 C106.545,434.061 106.466,433.943 106.485,433.803 C106.515,433.417 106.658,433.052 106.784,432.689 C107.163,431.454 107.269,430.155 107.313,428.87 C107.346,422.837 107.357,416.802 107.387,410.768 C107.389,410.611 107.376,410.455 107.352,410.301 C107.121,410.311 106.975,410.502 106.819,410.646 C106.092,411.354 105.49,412.193 105.062,413.115 C104.501,414.291 104.215,415.581 104.099,416.874 C103.998,417.715 104.067,418.57 104.266,419.393 C104.436,420.026 104.69,420.648 105.102,421.164 C105.279,421.371 105.338,421.691 105.19,421.928 C104.97,422.155 104.627,422.034 104.369,421.953 C103.5,421.644 102.752,421.045 102.18,420.329 C101.494,419.463 101.204,418.344 101.184,417.255 C101.249,416.29 101.511,415.348 101.859,414.449 C102.367,413.121 103.121,411.884 104.086,410.837 C104.711,410.182 105.403,409.588 106.153,409.08 C106.661,408.759 107.19,408.456 107.775,408.305 Z" id="Fill-20"></path>
        </g>
    </g>
</svg>