<svg xmlns="http://www.w3.org/2000/svg" viewBox="0 0 44.98 44.98"><defs><style>.cls-1{fill:#4d4d4f;}.cls-2{fill:none;}</style></defs><title>people</title><g id="Layer_2" data-name="Layer 2"><g id="OBJECTS"><path class="cls-1" d="M22.49,23.94A9.44,9.44,0,1,0,13,14.5,9.46,9.46,0,0,0,22.49,23.94Zm0-17.43a8,8,0,1,1-8,8A8,8,0,0,1,22.49,6.51Z"/><path class="cls-1" d="M30.3,25.39H14.68a8.93,8.93,0,0,0-8.92,8.92v1.31a.73.73,0,0,0,1.46,0V34.31a7.46,7.46,0,0,1,7.46-7.46H30.3a7.46,7.46,0,0,1,7.46,7.46v1.26a.73.73,0,0,0,1.46,0V34.31A8.93,8.93,0,0,0,30.3,25.39Z"/><rect class="cls-2" width="44.98" height="44.98"/></g></g></svg>