<?xml version="1.0" encoding="UTF-8"?>
<svg width="45px" height="45px" viewBox="0 0 45 45" version="1.1" xmlns="http://www.w3.org/2000/svg" xmlns:xlink="http://www.w3.org/1999/xlink">
    <!-- Generator: Sketch 52.5 (67469) - http://www.bohemiancoding.com/sketch -->
    <title>Group 2</title>
    <desc>Created with Sketch.</desc>
    <g id="Page-1" stroke="none" stroke-width="1" fill="none" fill-rule="evenodd">
        <g id="307885-P7YTXT-208" transform="translate(-366.000000, -90.000000)">
            <g id="Group" transform="translate(366.000000, 90.000000)">
                <g id="Group-2">
                    <rect id="Rectangle" fill="#FFFFFF" x="0" y="0" width="45" height="45"></rect>
                    <path d="M37.2202752,22.5421221 C36.9355526,23.4380106 36.5188223,24.2859207 35.9787123,25.066661 C35.4429162,25.8474012 34.7846031,26.5609716 34.0218917,27.1881809 L22.9781075,36.2133638 C22.7028756,36.4488943 22.3474038,36.578 21.9824413,36.578 C21.6321462,36.578 21.2766744,36.453256 20.9928147,36.2229595 L9.9481676,27.1934149 C8.41325415,25.9285284 7.30456174,24.3190695 6.74978414,22.5368881 C5.54704701,18.7335054 6.62209039,14.5183803 9.4934743,11.7923319 C12.1793571,9.24860165 15.8850644,8.56381829 19.4000939,9.95781039 C20.4380371,10.3643187 21.3146374,11.1406973 21.9824413,11.8926505 C22.8064111,10.9583792 23.6735207,10.3119786 24.5691026,9.95781039 C28.0858577,8.55858428 31.7855254,9.24860165 34.476585,11.7923319 C37.3479689,14.5183803 38.4238751,18.7335054 37.2202752,22.5421221" id="Fill-36" fill="#DE4C5B"></path>
                </g>
            </g>
        </g>
    </g>
</svg>