<svg xmlns="http://www.w3.org/2000/svg" viewBox="0 0 44.98 44.98"><defs><style>.cls-1{fill:#4d4d4f;}.cls-2{fill:none;}</style></defs><title>heart_1</title><g id="Layer_2" data-name="Layer 2"><g id="OBJECTS"><path class="cls-1" d="M33.47,10.35A8.47,8.47,0,0,0,29,9.05a8.76,8.76,0,0,0-7,3.62,8.79,8.79,0,0,0-7-3.62,8.44,8.44,0,0,0-4.48,1.3,10.16,10.16,0,0,0-3.3,13.28C9.2,27.42,17.76,34,20.85,36.31a1.84,1.84,0,0,0,1.12.37,1.88,1.88,0,0,0,1.12-.37C26.18,34,34.73,27.42,36.76,23.63A10.16,10.16,0,0,0,33.47,10.35Zm2,12.59c-1.52,2.85-7.85,8.17-13.26,12.2a.45.45,0,0,1-.25.09.4.4,0,0,1-.25-.09c-5.42-4-11.74-9.36-13.26-12.2a8.69,8.69,0,0,1,2.78-11.36A7,7,0,0,1,15,10.5a7.29,7.29,0,0,1,5.85,3L22,15.11l1.16-1.57a7.31,7.31,0,0,1,5.86-3,7,7,0,0,1,3.71,1.08A8.69,8.69,0,0,1,35.48,22.94Z"/><rect class="cls-2" width="44.98" height="44.98"/></g></g></svg>